<svg xmlns="http://www.w3.org/2000/svg" viewBox="0 0 1920 1080" role="img">
  <title>OBLinux default wallpaper — Circuit Bloom (final)</title>
  <desc>Circuit traces at the base of the image gradually bloom into soft organic curves rising toward the OBLinux mark, its ring rendered in a cool-to-warm gradient toward the spark.</desc>
  <defs><linearGradient id="ringGrad" x1="0%" y1="0%" x2="100%" y2="0%">
      <stop offset="0%" stop-color="#3f6690"/>
      <stop offset="100%" stop-color="#a97f55"/>
    </linearGradient><radialGradient id="sparkglow_960_360" cx="50%" cy="50%" r="50%">
      <stop offset="0%" stop-color="#d68a3c" stop-opacity="0.35"/>
      <stop offset="100%" stop-color="#d68a3c" stop-opacity="0"/>
    </radialGradient></defs>
  <rect x="0" y="0" width="1920" height="1080" fill="url(#bgB)"/>
  <linearGradient id="bgB" x1="0" y1="0" x2="0" y2="1">
    <stop offset="0%" stop-color="#151a22"/>
    <stop offset="100%" stop-color="#2c3a4e"/>
  </linearGradient>
  <path d="M477.9,967.1 L552.7,967.1 L552.7,903.4 L567.3,903.4 L567.3,833.1" fill="none" stroke="#3f6690" stroke-width="1.6" opacity="0.30"/><path d="M903.4,968.1 L992.6,968.1 L992.6,904.6 L1053.2,904.6" fill="none" stroke="#3f6690" stroke-width="1.6" opacity="0.23"/><path d="M1215.9,904.1 L1153.2,904.1 L1153.2,817.8 L1133.4,817.8 L1133.4,777.0 L1183.3,777.0" fill="none" stroke="#3f6690" stroke-width="1.6" opacity="0.18"/><path d="M1801.8,886.8 L1860.0,886.8 L1860.0,833.4 L1877.1,833.4" fill="none" stroke="#3f6690" stroke-width="1.6" opacity="0.31"/><path d="M753.2,1006.1 L734.3,1006.1 L734.3,926.1 L724.3,926.1 L724.3,839.3" fill="none" stroke="#3f6690" stroke-width="1.6" opacity="0.30"/><path d="M219.3,901.8 L175.8,901.8 L175.8,828.2 L226.0,828.2" fill="none" stroke="#3f6690" stroke-width="1.6" opacity="0.30"/><path d="M814.9,1013.4 L788.1,1013.4 L788.1,944.1 L803.2,944.1 L803.2,858.9 L836.0,858.9" fill="none" stroke="#3f6690" stroke-width="1.6" opacity="0.31"/><path d="M1615.8,1038.6 L1651.0,1038.6 L1651.0,963.6 L1619.7,963.6 L1619.7,896.5 L1632.7,896.5" fill="none" stroke="#3f6690" stroke-width="1.6" opacity="0.17"/><path d="M1246.1,981.3 L1204.2,981.3 L1204.2,935.1 L1201.0,935.1 L1201.0,863.1 L1198.0,863.1" fill="none" stroke="#3f6690" stroke-width="1.6" opacity="0.21"/><path d="M162.6,1023.5 L125.5,1023.5 L125.5,945.1 L192.6,945.1" fill="none" stroke="#3f6690" stroke-width="1.6" opacity="0.16"/><path d="M1170.7,887.2 L1186.3,887.2 L1186.3,819.6 L1262.2,819.6 L1262.2,765.7 L1214.7,765.7" fill="none" stroke="#3f6690" stroke-width="1.6" opacity="0.16"/><path d="M53.3,897.3 L-31.0,897.3 L-31.0,847.4 L-47.6,847.4 L-47.6,776.9 L-109.5,776.9" fill="none" stroke="#3f6690" stroke-width="1.6" opacity="0.16"/><path d="M1636.7,930.2 L1708.1,930.2 L1708.1,871.3 L1701.0,871.3" fill="none" stroke="#3f6690" stroke-width="1.6" opacity="0.24"/><path d="M1224.8,975.3 L1153.2,975.3 L1153.2,886.7 L1209.3,886.7 L1209.3,833.1 L1233.5,833.1" fill="none" stroke="#3f6690" stroke-width="1.6" opacity="0.27"/><path d="M1763.0,950.0 L1766.8,950.0 L1766.8,882.6 L1678.9,882.6 L1678.9,821.8" fill="none" stroke="#3f6690" stroke-width="1.6" opacity="0.25"/><path d="M76.9,978.5 L10.9,978.5 L10.9,906.9 L-19.3,906.9 L-19.3,849.2 L55.8,849.2" fill="none" stroke="#3f6690" stroke-width="1.6" opacity="0.25"/>
  <circle cx="567.3" cy="833.1" r="3" fill="#a9b8c8" opacity="0.45"/><circle cx="477.9" cy="967.1" r="2.2" fill="#a9b8c8" opacity="0.35"/><circle cx="1053.2" cy="904.6" r="3" fill="#a9b8c8" opacity="0.45"/><circle cx="903.4" cy="968.1" r="2.2" fill="#a9b8c8" opacity="0.35"/><circle cx="1183.3" cy="777.0" r="3" fill="#a9b8c8" opacity="0.45"/><circle cx="1215.9" cy="904.1" r="2.2" fill="#a9b8c8" opacity="0.35"/><circle cx="1877.1" cy="833.4" r="3" fill="#a9b8c8" opacity="0.45"/><circle cx="1801.8" cy="886.8" r="2.2" fill="#a9b8c8" opacity="0.35"/><circle cx="724.3" cy="839.3" r="3" fill="#a9b8c8" opacity="0.45"/><circle cx="753.2" cy="1006.1" r="2.2" fill="#a9b8c8" opacity="0.35"/><circle cx="226.0" cy="828.2" r="3" fill="#a9b8c8" opacity="0.45"/><circle cx="219.3" cy="901.8" r="2.2" fill="#a9b8c8" opacity="0.35"/><circle cx="836.0" cy="858.9" r="3" fill="#a9b8c8" opacity="0.45"/><circle cx="814.9" cy="1013.4" r="2.2" fill="#a9b8c8" opacity="0.35"/><circle cx="1632.7" cy="896.5" r="3" fill="#a9b8c8" opacity="0.45"/><circle cx="1615.8" cy="1038.6" r="2.2" fill="#a9b8c8" opacity="0.35"/><circle cx="1198.0" cy="863.1" r="3" fill="#a9b8c8" opacity="0.45"/><circle cx="1246.1" cy="981.3" r="2.2" fill="#a9b8c8" opacity="0.35"/><circle cx="192.6" cy="945.1" r="3" fill="#a9b8c8" opacity="0.45"/><circle cx="162.6" cy="1023.5" r="2.2" fill="#a9b8c8" opacity="0.35"/><circle cx="1214.7" cy="765.7" r="3" fill="#a9b8c8" opacity="0.45"/><circle cx="1170.7" cy="887.2" r="2.2" fill="#a9b8c8" opacity="0.35"/><circle cx="-109.5" cy="776.9" r="3" fill="#a9b8c8" opacity="0.45"/><circle cx="53.3" cy="897.3" r="2.2" fill="#a9b8c8" opacity="0.35"/><circle cx="1701.0" cy="871.3" r="3" fill="#a9b8c8" opacity="0.45"/><circle cx="1636.7" cy="930.2" r="2.2" fill="#a9b8c8" opacity="0.35"/><circle cx="1233.5" cy="833.1" r="3" fill="#a9b8c8" opacity="0.45"/><circle cx="1224.8" cy="975.3" r="2.2" fill="#a9b8c8" opacity="0.35"/><circle cx="1678.9" cy="821.8" r="3" fill="#a9b8c8" opacity="0.45"/><circle cx="1763.0" cy="950.0" r="2.2" fill="#a9b8c8" opacity="0.35"/><circle cx="55.8" cy="849.2" r="3" fill="#a9b8c8" opacity="0.45"/><circle cx="76.9" cy="978.5" r="2.2" fill="#a9b8c8" opacity="0.35"/>
  <path d="M668.2,713.6 C696.8,498.2 457.5,409.3 734.7,291.8" fill="none" stroke="#a9b8c8" stroke-width="1.4" opacity="0.16"/><path d="M1093.9,673.1 C993.2,477.3 1245.2,381.4 1243.3,278.4" fill="none" stroke="#a9b8c8" stroke-width="1.4" opacity="0.14"/><path d="M1373.2,776.3 C1432.0,643.1 1373.2,437.8 1253.3,350.4" fill="none" stroke="#a9b8c8" stroke-width="1.4" opacity="0.12"/><path d="M1195.0,734.4 C1066.1,554.4 1392.7,393.4 1051.8,241.1" fill="none" stroke="#a9b8c8" stroke-width="1.4" opacity="0.10"/><path d="M1568.1,660.4 C1645.6,518.6 1598.2,367.9 1717.4,275.6" fill="none" stroke="#a9b8c8" stroke-width="1.4" opacity="0.08"/>
  
  <circle cx="1121.0" cy="360.0" r="218.5" fill="url(#sparkglow_960_360)"/>
  <g transform="translate(730.0,130.0) scale(2.300)">
    <path d="M160.6,135 A70,70 0 1 1 160.6,65" fill="none" stroke="url(#ringGrad)" stroke-width="17" stroke-linecap="round"/>
    <circle cx="170" cy="100" r="10" fill="#d68a3c"/>
  </g>
  <g fill="#a9b8c8" opacity="0.55">
    <path transform="translate(1511.245,930.000) scale(0.014648,-0.014648)" d="M786 -20Q593 -20 440.5 72.0Q288 164 200.5 335.0Q113 506 113 744Q113 983 200.5 1154.5Q288 1326 440.5 1418.0Q593 1510 786 1510Q979 1510 1130.5 1418.0Q1282 1326 1369.5 1154.5Q1457 983 1457 744Q1457 506 1369.5 334.5Q1282 163 1130.5 71.5Q979 -20 786 -20ZM786 188Q913 188 1013.5 252.0Q1114 316 1172.5 440.0Q1231 564 1231 744Q1231 925 1172.5 1049.5Q1114 1174 1013.5 1238.0Q913 1302 786 1302Q658 1302 557.0 1238.0Q456 1174 397.5 1049.5Q339 925 339 744Q339 564 397.5 440.0Q456 316 557.0 252.0Q658 188 786 188Z"/>
    <path transform="translate(1538.243,930.000) scale(0.014648,-0.014648)" d="M165 0V1490H714Q872 1490 976.0 1438.0Q1080 1386 1131.5 1297.5Q1183 1209 1183 1099Q1183 959 1109.0 884.5Q1035 810 931 784V769Q1006 765 1077.0 721.5Q1148 678 1194.5 597.0Q1241 516 1241 402Q1241 287 1187.5 196.0Q1134 105 1022.5 52.5Q911 0 738 0ZM393 196H715Q876 196 945.5 258.0Q1015 320 1015 413Q1015 518 936.5 593.5Q858 669 724 669H393ZM393 845H692Q805 845 882.0 909.0Q959 973 959 1080Q959 1172 894.5 1233.5Q830 1295 698 1295H393Z"/>
    <path transform="translate(1561.945,930.000) scale(0.014648,-0.014648)" d="M165 0V1490H393V196H1068V0Z"/>
    <path transform="translate(1582.908,930.000) scale(0.014648,-0.014648)" d="M393 1490V0H165V1490Z"/>
    <path transform="translate(1595.082,930.000) scale(0.014648,-0.014648)" d="M165 0V1490H428L989 603Q1024 547 1071.0 463.5Q1118 380 1168 273Q1160 381 1156.5 479.5Q1153 578 1153 642V1490H1384V0H1120L617 793Q580 852 546.5 910.0Q513 968 473.0 1040.5Q433 1113 379 1213Q386 1073 391.0 963.0Q396 853 396 795V0Z"/>
    <path transform="translate(1621.772,930.000) scale(0.014648,-0.014648)" d="M759 -23Q579 -23 445.5 45.5Q312 114 238.5 235.0Q165 356 165 512V1490H393V531Q393 380 491.5 282.0Q590 184 759 184Q927 184 1024.5 282.0Q1122 380 1122 531V1490H1351V512Q1351 356 1277.0 235.0Q1203 114 1070.0 45.5Q937 -23 759 -23Z"/>
    <path transform="translate(1647.979,930.000) scale(0.014648,-0.014648)" d="M55 0 589 763 93 1490H358L555 1196Q616 1105 650.0 1045.0Q684 985 720 914Q756 984 790.5 1044.5Q825 1105 887 1196L1088 1490H1347L852 770L1380 0H1114L871 356Q816 437 784.5 489.5Q753 542 718 608Q684 544 651.5 490.5Q619 437 563 356L317 0Z"/>
  </g>
</svg>
